<svg width="128" height="128" viewBox="0 0 128 128" fill="none" xmlns="http://www.w3.org/2000/svg">
<rect width="128" height="128" fill="#1E1E1E"/>
<path d="M31.5195 82.9109H20.1914C19.931 82.9109 19.8008 82.7481 19.8008 82.4226L19.9961 13.7214C19.9961 13.461 20.1263 13.3308 20.3867 13.3308H32.5938C32.8542 13.3308 33.082 13.461 33.2773 13.7214L42.4082 26.905L51.4902 13.7214C51.6855 13.461 51.9297 13.3308 52.2227 13.3308H64.4785C64.7715 13.3308 64.918 13.461 64.918 13.7214L65.0156 48.072L65.0645 65.2473L65.1133 82.4226C65.1133 82.7481 64.9831 82.9109 64.7227 82.9109H53.3945C53.1341 82.9109 53.0039 82.7481 53.0039 82.4226L52.9551 56.9099L52.9062 31.3972L42.4082 46.6316L32.0078 31.3972L31.9102 82.4226C31.9102 82.7481 31.7799 82.9109 31.5195 82.9109Z" fill="white"/>
<path d="M94.3613 82.9109H82.8867C82.6589 82.9109 82.5449 82.7807 82.5449 82.5203L94.3613 53.7117L69.2637 13.7214C69.1986 13.461 69.2962 13.3308 69.5566 13.3308H80.6895C81.015 13.3308 81.2103 13.461 81.2754 13.7214L88.6484 40.6257L96.168 13.7214C96.2331 13.461 96.3958 13.3308 96.6562 13.3308H107.887C108.147 13.3308 108.245 13.461 108.18 13.7214L82.8867 53.7117L94.752 82.5203C94.752 82.7807 94.6217 82.9109 94.3613 82.9109Z" fill="white"/>
<path d="M30.21 114.288H25.811C25.6968 114.288 25.6396 114.225 25.6396 114.098L30.21 102.958L25.6396 91.8557H20.5742C20.4473 91.8557 20.3838 91.7923 20.3838 91.6653L20.4219 87.3045C20.4219 87.2029 20.4727 87.1521 20.5742 87.1521H35.3896C35.5293 87.1521 35.5991 87.2029 35.5991 87.3045V91.6653C35.5991 91.7923 35.5483 91.8557 35.4468 91.8557H30.3242L25.6396 102.958L30.3623 114.098C30.3623 114.225 30.3115 114.288 30.21 114.288Z" fill="white"/>
<path d="M36.1895 114.098L41.0264 87.3045C41.0518 87.2029 41.1152 87.1521 41.2168 87.1521H46.8726C46.9741 87.1521 47.0376 87.2029 47.063 87.3045L51.7095 114.098C51.7222 114.225 51.6714 114.288 51.5571 114.288H47.2344C47.1074 114.288 47.0376 114.225 47.0249 114.098L46.606 111.241H41.293L40.874 114.098C40.8613 114.225 40.7979 114.288 40.6836 114.288H36.3418C36.2402 114.288 36.1895 114.225 36.1895 114.098ZM43.8257 96.1214L42.0737 107.071H45.8252L44.2256 96.1214H43.9974H43.8257Z" fill="white"/>
<path d="M60.7739 114.669C59.3901 114.669 58.1143 114.314 56.9463 113.603C55.791 112.892 54.8643 111.946 54.166 110.765C53.4805 109.572 53.1377 108.264 53.1377 106.843V105.053C53.1377 104.913 53.2012 104.843 53.3281 104.843H57.708C57.8096 104.843 57.8604 104.913 57.8604 105.053V106.843C57.8604 107.693 58.146 108.429 58.7173 109.052C59.2886 109.661 59.9741 109.966 60.7739 109.966C61.5864 109.966 62.2783 109.655 62.8496 109.033C63.4209 108.398 63.7065 107.668 63.7065 106.843C63.7065 105.89 63.0845 105.059 61.8403 104.348C61.6372 104.221 61.3706 104.069 61.0405 103.891C60.7231 103.7 60.3423 103.485 59.8979 103.243C59.4536 103.002 59.022 102.767 58.603 102.539C58.1841 102.298 57.7778 102.069 57.3843 101.853C55.9624 101.015 54.9023 99.968 54.2041 98.7112C53.5186 97.4417 53.1758 96.0198 53.1758 94.4456C53.1758 92.9983 53.5312 91.6907 54.2422 90.5227C54.9531 89.3675 55.8799 88.4534 57.0225 87.7805C58.1777 87.095 59.4282 92.2747 60.7739 92.2747C62.1577 92.2747 63.4272 87.095 64.5825 87.7805C65.7378 88.4788 66.6582 89.4055 67.3438 90.5608C68.042 91.7161 68.3911 93.011 68.3911 94.4456V97.6448C68.3911 97.7464 68.3403 97.7971 68.2388 97.7971H63.8589C63.7573 97.7971 63.7065 97.7464 63.7065 97.6448L63.6685 94.4456C63.6685 93.5315 63.3828 92.7888 62.8115 92.2176C62.2402 91.6463 61.561 87.1521 60.7739 87.1521C59.9741 87.1521 59.2886 91.6653 58.7173 92.2747C58.146 92.8841 57.8604 93.6077 57.8604 94.4456C57.8604 95.2962 58.0381 96.0071 58.3936 96.5784C58.7617 97.1497 59.4282 97.6956 60.3931 98.2161C60.4946 98.2669 60.7295 98.3938 61.0977 98.597C61.4658 98.8001 61.8721 99.0286 62.3164 99.2825C62.7734 99.5237 63.186 99.7459 63.5542 99.949C63.9224 100.139 64.1445 100.254 64.2207 100.292C65.5156 101.015 66.5376 101.904 67.2866 102.958C68.0483 104.012 68.4292 105.306 68.4292 106.843C68.4292 108.328 68.0864 109.661 67.4009 110.842C66.7026 112.022 65.7759 112.955 64.6206 113.641C63.4653 114.326 62.1831 114.669 60.7739 114.669Z" fill="white"/>
<path d="M75.7036 114.288H71.2856C71.1841 114.288 71.1333 114.225 71.1333 114.098L71.2095 87.3426C71.2095 87.2156 71.2603 87.1521 71.3618 87.1521H75.7417C75.8433 87.1521 75.894 87.2156 75.894 87.3426V96.5784L82.0068 87.3045C82.1084 87.2029 82.2036 87.1521 82.2925 87.1521H86.7676C86.8818 87.1521 86.9072 87.2029 86.8438 87.3045L80.1025 98.0638L87.6626 114.136C87.7261 114.238 87.6626 114.288 87.4722 114.288H82.7114C82.5845 114.288 82.5083 114.238 82.4829 114.136L77.208 102.672L75.856 104.805V114.098C75.856 114.225 75.8052 114.288 75.7036 114.288Z" fill="white"/>
<path d="M95.3179 114.136C96.7017 114.136 97.9775 113.781 99.1455 113.07C100.301 112.359 101.228 111.413 101.926 110.232C102.611 109.039 102.954 107.731 102.954 106.309V104.519C102.954 104.38 102.891 104.31 102.764 104.31H98.3838C98.2822 104.31 98.2314 104.38 98.2314 104.519V106.309C98.2314 107.16 97.9458 107.896 97.3745 108.518C96.8032 109.128 96.1177 109.432 95.3179 109.432C94.5054 109.432 93.8135 109.121 93.2422 108.499C92.6709 107.865 92.3853 107.135 92.3853 106.309C92.3853 105.357 93.0073 104.526 94.2515 103.815C94.4546 103.688 94.7212 103.535 95.0513 103.358C95.3687 103.167 93.3575 98.9969 93.8018 98.7557C94.2461 98.5145 97.0698 102.234 97.4888 102.006C97.9077 101.764 98.314 101.536 98.7075 101.32C100.129 100.482 101.189 99.4348 101.888 98.178C102.573 96.9085 102.916 95.4866 102.916 93.9124C102.916 92.4651 102.561 91.1575 101.85 89.9895C101.139 88.8343 100.212 87.9202 99.0693 87.2473C97.9141 86.5618 96.6636 86.219 95.3179 86.219C93.9341 86.219 92.6646 86.5618 91.5093 87.2473C90.354 87.9456 89.4336 88.8723 88.748 90.0276C88.0498 91.1829 87.7007 92.4778 87.7007 93.9124V97.1116C87.7007 97.2132 87.7515 97.2639 87.853 97.2639H92.2329C92.3345 97.2639 92.3853 97.2132 92.3853 97.1116L92.4233 93.9124C92.4233 92.9983 92.709 92.2556 93.2803 91.6844C93.8516 91.1131 94.5308 90.8274 95.3179 90.8274C96.1177 90.8274 96.8032 91.1321 97.3745 91.7415C97.9458 92.3509 98.2314 93.0745 98.2314 93.9124C98.2314 94.763 98.0537 95.4739 97.6982 96.0452C97.3301 96.6165 96.6636 97.1624 95.6987 97.6829C95.5972 97.7337 95.3623 97.8606 94.9941 98.0638C94.626 98.2669 96.6679 102.419 96.2236 102.672C95.7666 102.914 92.9058 99.2127 92.5376 99.4158C92.1694 99.6062 91.9473 99.7205 91.8711 99.7586C90.5762 100.482 89.5542 101.371 88.8052 102.425C88.0435 103.478 87.6626 104.773 87.6626 106.309C87.6626 107.795 88.0054 109.128 88.6909 110.308C89.3892 111.489 90.3159 112.422 91.4712 113.108C92.6265 113.793 93.9087 114.136 95.3179 114.136Z" fill="white"/>
</svg>
